<?xml version="1.0" encoding="UTF-8" standalone="no"?>
<!DOCTYPE svg PUBLIC "-//W3C//DTD SVG 1.1//EN" "http://www.w3.org/Graphics/SVG/1.1/DTD/svg11.dtd">
<!-- Generated by Microsoft Visio, SVG Export SPI timing 3.svg Page-1 -->
<svg xmlns="http://www.w3.org/2000/svg" xmlns:xlink="http://www.w3.org/1999/xlink" xmlns:ev="http://www.w3.org/2001/xml-events"
		xmlns:v="http://schemas.microsoft.com/visio/2003/SVGExtensions/" width="7.26215in" height="4.0161in"
		viewBox="0 0 522.875 289.159" xml:space="preserve" color-interpolation-filters="sRGB" class="st11">
	<v:documentProperties v:langID="1033" v:viewMarkup="false"/>

	<style type="text/css">
	<![CDATA[
		.st1 {stroke:#000000;stroke-linecap:round;stroke-linejoin:round;stroke-width:1}
		.st2 {stroke:#000000;stroke-linecap:round;stroke-linejoin:round;stroke-width:0.75}
		.st3 {fill:none;stroke:none;stroke-linecap:round;stroke-linejoin:round;stroke-width:0.75}
		.st4 {fill:#000000;font-family:Calibri;font-size:1.00001em}
		.st5 {stroke:#000000;stroke-dasharray:2.25,2.25;stroke-linecap:round;stroke-linejoin:round;stroke-width:0.75}
		.st6 {marker-end:url(#mrkr4-78);stroke:#000000;stroke-linecap:round;stroke-linejoin:round;stroke-width:0.75}
		.st7 {fill:#000000;fill-opacity:1;stroke:#000000;stroke-opacity:1;stroke-width:0.34246575342466}
		.st8 {fill:#000000;font-family:Calibri;font-size:1.16666em}
		.st9 {font-size:1em}
		.st10 {fill:#000000;font-family:Calibri;font-size:1.33333em;font-weight:bold}
		.st11 {fill:none;fill-rule:evenodd;font-size:12px;overflow:visible;stroke-linecap:square;stroke-miterlimit:3}
	]]>
	</style>

	<defs id="Markers">
		<g id="lend4">
			<path d="M 2 1 L 0 0 L 2 -1 L 2 1 " style="stroke:none"/>
		</g>
		<marker id="mrkr4-78" class="st7" v:arrowType="4" v:arrowSize="0" v:setback="5.84" refX="-5.84" orient="auto"
				markerUnits="strokeWidth" overflow="visible">
			<use xlink:href="#lend4" transform="scale(-2.92,-2.92) "/>
		</marker>
	</defs>
	<g v:mID="0" v:index="1" v:groupContext="foregroundPage">
		<title>Page-1</title>
		<v:pageProperties v:drawingScale="1" v:pageScale="1" v:drawingUnits="19" v:shadowOffsetX="9" v:shadowOffsetY="-9"/>
		<g id="shape36-1" v:mID="36" v:groupContext="shape" transform="translate(414.375,-191.42)">
			<title>Sheet.36</title>
			<path d="M0 275.66 L2.25 289.16 L36 289.16 L38.25 275.66 L72 275.66" class="st1"/>
		</g>
		<g id="shape37-4" v:mID="37" v:groupContext="shape" transform="translate(486.375,-191.42)">
			<title>Sheet.37</title>
			<path d="M0 275.66 L2.25 289.16 L36 289.16" class="st1"/>
		</g>
		<g id="shape38-7" v:mID="38" v:groupContext="shape" transform="translate(342.375,-191.42)">
			<title>Sheet.38</title>
			<path d="M0 275.66 L2.25 289.16 L36 289.16 L38.25 275.66 L72 275.66" class="st1"/>
		</g>
		<g id="shape39-10" v:mID="39" v:groupContext="shape" transform="translate(270.375,-191.42)">
			<title>Sheet.39</title>
			<path d="M0 275.66 L2.25 289.16 L36 289.16 L38.25 275.66 L72 275.66" class="st1"/>
		</g>
		<g id="shape40-13" v:mID="40" v:groupContext="shape" transform="translate(414.375,373.398) scale(1,-1)">
			<title>Sheet.40</title>
			<path d="M0 275.66 L2.25 289.16 L36 289.16 L38.25 275.66 L72 275.66" class="st1"/>
		</g>
		<g id="shape41-16" v:mID="41" v:groupContext="shape" transform="translate(486.375,373.398) scale(1,-1)">
			<title>Sheet.41</title>
			<path d="M0 275.66 L2.25 289.16 L36 289.16" class="st1"/>
		</g>
		<g id="shape42-19" v:mID="42" v:groupContext="shape" transform="translate(342.375,373.398) scale(1,-1)">
			<title>Sheet.42</title>
			<path d="M0 275.66 L2.25 289.16 L36 289.16 L38.25 275.66 L72 275.66" class="st1"/>
		</g>
		<g id="shape43-22" v:mID="43" v:groupContext="shape" transform="translate(270.375,373.398) scale(1,-1)">
			<title>Sheet.43</title>
			<path d="M0 275.66 L2.25 289.16 L36 289.16 L38.25 275.66 L72 275.66" class="st1"/>
		</g>
		<g id="shape44-25" v:mID="44" v:groupContext="shape" transform="translate(198.375,-191.42)">
			<title>Sheet.44</title>
			<path d="M0 275.66 L2.25 289.16 L36 289.16 L38.25 275.66 L72 275.66" class="st1"/>
		</g>
		<g id="shape45-28" v:mID="45" v:groupContext="shape" transform="translate(198.375,373.398) scale(1,-1)">
			<title>Sheet.45</title>
			<path d="M0 275.66 L2.25 289.16 L36 289.16 L38.25 275.66 L72 275.66" class="st1"/>
		</g>
		<g id="shape46-31" v:mID="46" v:groupContext="shape" transform="translate(153.375,-204.92)">
			<title>Sheet.46</title>
			<path d="M45 289.16 L11.25 289.16 L0 289.16" class="st2"/>
		</g>
		<g id="shape47-34" v:mID="47" v:groupContext="shape" transform="translate(198.375,386.898) rotate(180)">
			<title>Sheet.47</title>
			<path d="M0 289.16 L45 289.16" class="st2"/>
		</g>
		<g id="shape48-37" v:mID="48" v:groupContext="shape" transform="translate(153.375,339.443) scale(1,-1)">
			<title>Sheet.48</title>
			<path d="M0 275.66 L45 275.66 L47.25 289.16 L63 289.16 L65.25 275.66 L81 275.66" class="st1"/>
		</g>
		<g id="shape49-40" v:mID="49" v:groupContext="shape" transform="translate(234.375,339.443) scale(1,-1)">
			<title>Sheet.49</title>
			<path d="M0 275.66 L2.25 289.16 L18 289.16 L20.25 275.66 L36 275.66" class="st1"/>
		</g>
		<g id="shape50-43" v:mID="50" v:groupContext="shape" transform="translate(450.375,339.443) scale(1,-1)">
			<title>Sheet.50</title>
			<path d="M0 275.66 L2.25 289.16 L18 289.16 L20.25 275.66 L72 275.66" class="st1"/>
		</g>
		<g id="shape51-46" v:mID="51" v:groupContext="shape" transform="translate(270.375,339.443) scale(1,-1)">
			<title>Sheet.51</title>
			<path d="M0 275.66 L2.25 289.16 L18 289.16 L20.25 275.66 L36 275.66" class="st1"/>
		</g>
		<g id="shape52-49" v:mID="52" v:groupContext="shape" transform="translate(306.375,339.443) scale(1,-1)">
			<title>Sheet.52</title>
			<path d="M0 275.66 L2.25 289.16 L18 289.16 L20.25 275.66 L36 275.66" class="st1"/>
		</g>
		<g id="shape53-52" v:mID="53" v:groupContext="shape" transform="translate(342.375,339.443) scale(1,-1)">
			<title>Sheet.53</title>
			<path d="M0 275.66 L2.25 289.16 L18 289.16 L20.25 275.66 L36 275.66" class="st1"/>
		</g>
		<g id="shape54-55" v:mID="54" v:groupContext="shape" transform="translate(378.375,339.443) scale(1,-1)">
			<title>Sheet.54</title>
			<path d="M0 275.66 L2.25 289.16 L18 289.16 L20.25 275.66 L36 275.66" class="st1"/>
		</g>
		<g id="shape55-58" v:mID="55" v:groupContext="shape" transform="translate(414.375,339.443) scale(1,-1)">
			<title>Sheet.55</title>
			<path d="M0 275.66 L2.25 289.16 L18 289.16 L20.25 275.66 L36 275.66" class="st1"/>
		</g>
		<g id="shape56-61" v:mID="56" v:groupContext="shape" transform="translate(148.875,-220.261) scale(-1,1)">
			<title>Sheet.56</title>
			<desc>SCLK</desc>
			<v:textBlock v:margins="rect(0,0,0,0)"/>
			<v:textRect cx="15.75" cy="281.795" width="31.5" height="14.7273"/>
			<rect x="0" y="274.432" width="31.5" height="14.7273" class="st3"/>
			<text x="-23.19" y="284.8" transform="scale(-1,1)" class="st4" v:langID="1033"><v:paragraph v:spLine="-1"
						v:horizAlign="2"/><v:tabList/>SCLK</text>		</g>
		<g id="shape57-64" v:mID="57" v:groupContext="shape" transform="translate(522.375,-255.034) scale(-1,1)">
			<title>Sheet.57</title>
			<path d="M0 275.66 L31.5 275.66 L33.75 289.16 L339.75 289.16 L342 275.66 L369 276.07" class="st1"/>
		</g>
		<g id="shape58-67" v:mID="58" v:groupContext="shape" transform="translate(198.375,-191.42)">
			<title>Sheet.58</title>
			<path d="M0 199.16 L0 236.22 L0 289.16" class="st5"/>
		</g>
		<g id="shape59-70" v:mID="59" v:groupContext="shape" transform="translate(324.375,-274.057) scale(-1,1)">
			<title>Sheet.59</title>
			<desc>Bit0 shifted out here</desc>
			<v:textBlock v:margins="rect(0,0,0,0)"/>
			<v:textRect cx="56.25" cy="281.795" width="112.5" height="14.7273"/>
			<rect x="0" y="274.432" width="112.5" height="14.7273" class="st3"/>
			<text x="-112.5" y="284.8" transform="scale(-1,1)" class="st4" v:langID="1033"><v:paragraph v:spLine="-1"/><v:tabList/>Bit0 shifted out here</text>		</g>
		<g id="shape60-73" v:mID="60" v:groupContext="shape" transform="translate(201.75,-274.249)">
			<title>Sheet.60</title>
			<path d="M9 284.24 L3.84 287.06" class="st6"/>
		</g>
		<g id="shape61-79" v:mID="61" v:groupContext="shape" transform="translate(216.375,-166.67)">
			<title>Sheet.61</title>
			<path d="M0 216.95 L0 245.48 L0 289.16" class="st5"/>
		</g>
		<g id="shape62-82" v:mID="62" v:groupContext="shape" transform="translate(341.25,-163.193) scale(-1,1)">
			<title>Sheet.62</title>
			<desc>Bit0 shifted in here</desc>
			<v:textBlock v:margins="rect(0,0,0,0)"/>
			<v:textRect cx="56.25" cy="281.795" width="112.5" height="14.7273"/>
			<rect x="0" y="274.432" width="112.5" height="14.7273" class="st3"/>
			<text x="-112.5" y="284.8" transform="scale(-1,1)" class="st4" v:langID="1033"><v:paragraph v:spLine="-1"/><v:tabList/>Bit0 shifted in here</text>		</g>
		<g id="shape63-85" v:mID="63" v:groupContext="shape" transform="translate(508.909,113.489) rotate(90)">
			<title>Sheet.63</title>
			<path d="M4.5 281.28 L2.17 285.36" class="st6"/>
		</g>
		<g id="shape64-90" v:mID="64" v:groupContext="shape" transform="translate(148.875,-254.42) scale(-1,1)">
			<title>Sheet.64</title>
			<desc>SS</desc>
			<v:textBlock v:margins="rect(0,0,0,0)"/>
			<v:textRect cx="15.75" cy="281.795" width="31.5" height="14.7273"/>
			<rect x="0" y="274.432" width="31.5" height="14.7273" class="st3"/>
			<text x="-11.03" y="284.8" transform="scale(-1,1)" class="st4" v:langID="1033"><v:paragraph v:spLine="-1"
						v:horizAlign="2"/><v:tabList/>SS</text>		</g>
		<g id="shape65-93" v:mID="65" v:groupContext="shape" transform="translate(148.875,-191.42) scale(-1,1)">
			<title>Sheet.65</title>
			<desc>MOSI/MISO</desc>
			<v:textBlock v:margins="rect(0,0,0,0)"/>
			<v:textRect cx="29.25" cy="281.795" width="58.5" height="14.7273"/>
			<rect x="0" y="274.432" width="58.5" height="14.7273" class="st3"/>
			<text x="-58.12" y="284.8" transform="scale(-1,1)" class="st4" v:langID="1033"><v:paragraph v:spLine="-1"
						v:horizAlign="2"/><v:tabList/>MOSI/MISO</text>		</g>
		<g id="shape66-96" v:mID="66" v:groupContext="shape" transform="translate(414.375,-28.6023)">
			<title>Sheet.66</title>
			<path d="M0 275.66 L2.25 289.16 L36 289.16 L38.25 275.66 L72 275.66" class="st1"/>
		</g>
		<g id="shape67-99" v:mID="67" v:groupContext="shape" transform="translate(486.375,-28.6023)">
			<title>Sheet.67</title>
			<path d="M0 275.66 L2.25 289.16 L36 289.16" class="st1"/>
		</g>
		<g id="shape68-102" v:mID="68" v:groupContext="shape" transform="translate(342.375,-28.6023)">
			<title>Sheet.68</title>
			<path d="M0 275.66 L2.25 289.16 L36 289.16 L38.25 275.66 L72 275.66" class="st1"/>
		</g>
		<g id="shape69-105" v:mID="69" v:groupContext="shape" transform="translate(270.375,-28.6023)">
			<title>Sheet.69</title>
			<path d="M0 275.66 L2.25 289.16 L36 289.16 L38.25 275.66 L72 275.66" class="st1"/>
		</g>
		<g id="shape70-108" v:mID="70" v:groupContext="shape" transform="translate(414.375,536.216) scale(1,-1)">
			<title>Sheet.70</title>
			<path d="M0 275.66 L2.25 289.16 L36 289.16 L38.25 275.66 L72 275.66" class="st1"/>
		</g>
		<g id="shape71-111" v:mID="71" v:groupContext="shape" transform="translate(486.375,536.216) scale(1,-1)">
			<title>Sheet.71</title>
			<path d="M0 275.66 L2.25 289.16 L36 289.16" class="st1"/>
		</g>
		<g id="shape72-114" v:mID="72" v:groupContext="shape" transform="translate(342.375,536.216) scale(1,-1)">
			<title>Sheet.72</title>
			<path d="M0 275.66 L2.25 289.16 L36 289.16 L38.25 275.66 L72 275.66" class="st1"/>
		</g>
		<g id="shape73-117" v:mID="73" v:groupContext="shape" transform="translate(270.375,536.216) scale(1,-1)">
			<title>Sheet.73</title>
			<path d="M0 275.66 L2.25 289.16 L36 289.16 L38.25 275.66 L72 275.66" class="st1"/>
		</g>
		<g id="shape74-120" v:mID="74" v:groupContext="shape" transform="translate(198.375,-28.6023)">
			<title>Sheet.74</title>
			<path d="M0 275.66 L2.25 289.16 L36 289.16 L38.25 275.66 L72 275.66" class="st1"/>
		</g>
		<g id="shape75-123" v:mID="75" v:groupContext="shape" transform="translate(198.375,536.216) scale(1,-1)">
			<title>Sheet.75</title>
			<path d="M0 275.66 L2.25 289.16 L36 289.16 L38.25 275.66 L72 275.66" class="st1"/>
		</g>
		<g id="shape76-126" v:mID="76" v:groupContext="shape" transform="translate(153.375,-42.1023)">
			<title>Sheet.76</title>
			<path d="M45 289.16 L11.25 289.16 L0 289.16" class="st2"/>
		</g>
		<g id="shape77-129" v:mID="77" v:groupContext="shape" transform="translate(198.375,549.716) rotate(180)">
			<title>Sheet.77</title>
			<path d="M0 289.16 L45 289.16" class="st2"/>
		</g>
		<g id="shape78-132" v:mID="78" v:groupContext="shape" transform="translate(153.375,-58.8239)">
			<title>Sheet.78</title>
			<path d="M0 275.61 L45 275.66 L47.25 289.16 L63 289.16 L65.25 275.66 L81 275.66" class="st1"/>
		</g>
		<g id="shape79-135" v:mID="79" v:groupContext="shape" transform="translate(234.375,-58.8239)">
			<title>Sheet.79</title>
			<path d="M0 275.66 L2.25 289.16 L18 289.16 L20.25 275.66 L36 275.66" class="st1"/>
		</g>
		<g id="shape80-138" v:mID="80" v:groupContext="shape" transform="translate(450.375,-58.8239)">
			<title>Sheet.80</title>
			<path d="M0 275.66 L2.25 289.16 L18 289.16 L20.25 275.66 L72 275.66" class="st1"/>
		</g>
		<g id="shape81-141" v:mID="81" v:groupContext="shape" transform="translate(270.375,-58.8239)">
			<title>Sheet.81</title>
			<path d="M0 275.66 L2.25 289.16 L18 289.16 L20.25 275.66 L36 275.66" class="st1"/>
		</g>
		<g id="shape82-144" v:mID="82" v:groupContext="shape" transform="translate(306.375,-58.8239)">
			<title>Sheet.82</title>
			<path d="M0 275.66 L2.25 289.16 L18 289.16 L20.25 275.66 L36 275.66" class="st1"/>
		</g>
		<g id="shape83-147" v:mID="83" v:groupContext="shape" transform="translate(342.375,-58.8239)">
			<title>Sheet.83</title>
			<path d="M0 275.66 L2.25 289.16 L18 289.16 L20.25 275.66 L36 275.66" class="st1"/>
		</g>
		<g id="shape84-150" v:mID="84" v:groupContext="shape" transform="translate(378.375,-58.8239)">
			<title>Sheet.84</title>
			<path d="M0 275.66 L2.25 289.16 L18 289.16 L20.25 275.66 L36 275.66" class="st1"/>
		</g>
		<g id="shape85-153" v:mID="85" v:groupContext="shape" transform="translate(414.375,-58.8239)">
			<title>Sheet.85</title>
			<path d="M0 275.66 L2.25 289.16 L18 289.16 L20.25 275.66 L36 275.66" class="st1"/>
		</g>
		<g id="shape86-156" v:mID="86" v:groupContext="shape" transform="translate(148.875,-60.1023) scale(-1,1)">
			<title>Sheet.86</title>
			<desc>SCLK</desc>
			<v:textBlock v:margins="rect(0,0,0,0)"/>
			<v:textRect cx="15.75" cy="281.795" width="31.5" height="14.7273"/>
			<rect x="0" y="274.432" width="31.5" height="14.7273" class="st3"/>
			<text x="-23.19" y="284.8" transform="scale(-1,1)" class="st4" v:langID="1033"><v:paragraph v:spLine="-1"
						v:horizAlign="2"/><v:tabList/>SCLK</text>		</g>
		<g id="shape87-159" v:mID="87" v:groupContext="shape" transform="translate(522.375,-90.375) scale(-1,1)">
			<title>Sheet.87</title>
			<path d="M0 275.66 L31.5 275.66 L33.75 289.16 L339.75 289.16 L342 275.66 L371.25 275.66" class="st1"/>
		</g>
		<g id="shape88-162" v:mID="88" v:groupContext="shape" transform="translate(198.375,-28.6023)">
			<title>Sheet.88</title>
			<path d="M0 199.16 L0 236.22 L0 289.16" class="st5"/>
		</g>
		<g id="shape89-165" v:mID="89" v:groupContext="shape" transform="translate(324.375,-111.239) scale(-1,1)">
			<title>Sheet.89</title>
			<desc>Bit0 shifted out here</desc>
			<v:textBlock v:margins="rect(0,0,0,0)"/>
			<v:textRect cx="56.25" cy="281.795" width="112.5" height="14.7273"/>
			<rect x="0" y="274.432" width="112.5" height="14.7273" class="st3"/>
			<text x="-112.5" y="284.8" transform="scale(-1,1)" class="st4" v:langID="1033"><v:paragraph v:spLine="-1"/><v:tabList/>Bit0 shifted out here</text>		</g>
		<g id="shape90-168" v:mID="90" v:groupContext="shape" transform="translate(201.75,-111.43)">
			<title>Sheet.90</title>
			<path d="M9 284.24 L3.84 287.06" class="st6"/>
		</g>
		<g id="shape91-173" v:mID="91" v:groupContext="shape" transform="translate(216.375,-3.85227)">
			<title>Sheet.91</title>
			<path d="M0 218.39 L0 245.48 L0 289.16" class="st5"/>
		</g>
		<g id="shape92-176" v:mID="92" v:groupContext="shape" transform="translate(341.25,-0.375) scale(-1,1)">
			<title>Sheet.92</title>
			<desc>Bit0 shifted in here</desc>
			<v:textBlock v:margins="rect(0,0,0,0)"/>
			<v:textRect cx="56.25" cy="281.795" width="112.5" height="14.7273"/>
			<rect x="0" y="274.432" width="112.5" height="14.7273" class="st3"/>
			<text x="-112.5" y="284.8" transform="scale(-1,1)" class="st4" v:langID="1033"><v:paragraph v:spLine="-1"/><v:tabList/>Bit0 shifted in here</text>		</g>
		<g id="shape93-179" v:mID="93" v:groupContext="shape" transform="translate(508.909,276.307) rotate(90)">
			<title>Sheet.93</title>
			<path d="M4.5 281.28 L2.17 285.36" class="st6"/>
		</g>
		<g id="shape94-184" v:mID="94" v:groupContext="shape" transform="translate(148.875,-91.6023) scale(-1,1)">
			<title>Sheet.94</title>
			<desc>SS</desc>
			<v:textBlock v:margins="rect(0,0,0,0)"/>
			<v:textRect cx="15.75" cy="281.795" width="31.5" height="14.7273"/>
			<rect x="0" y="274.432" width="31.5" height="14.7273" class="st3"/>
			<text x="-11.03" y="284.8" transform="scale(-1,1)" class="st4" v:langID="1033"><v:paragraph v:spLine="-1"
						v:horizAlign="2"/><v:tabList/>SS</text>		</g>
		<g id="shape95-187" v:mID="95" v:groupContext="shape" transform="translate(148.875,-28.6023) scale(-1,1)">
			<title>Sheet.95</title>
			<desc>MOSI/MISO</desc>
			<v:textBlock v:margins="rect(0,0,0,0)"/>
			<v:textRect cx="29.25" cy="281.795" width="58.5" height="14.7273"/>
			<rect x="0" y="274.432" width="58.5" height="14.7273" class="st3"/>
			<text x="-58.12" y="284.8" transform="scale(-1,1)" class="st4" v:langID="1033"><v:paragraph v:spLine="-1"
						v:horizAlign="2"/><v:tabList/>MOSI/MISO</text>		</g>
		<g id="shape96-190" v:mID="96" v:groupContext="shape" transform="translate(72.375,-189.375)">
			<title>Sheet.96</title>
			<path d="M10.12 208.16 L0 208.16 L0 289.16 L11.25 289.16" class="st1"/>
		</g>
		<g id="shape97-193" v:mID="97" v:groupContext="shape" transform="translate(63.375,-235.5) scale(-1,1)">
			<title>Sheet.97</title>
			<desc>CPOL = 0 CPHA = 1</desc>
			<v:textBlock v:margins="rect(0,0,0,0)"/>
			<v:textRect cx="31.5" cy="282.409" width="63" height="13.5"/>
			<rect x="0" y="275.659" width="63" height="13.5" class="st3"/>
			<text x="-56.62" y="278.91" transform="scale(-1,1)" class="st8" v:langID="1033"><v:paragraph v:spLine="-1"
						v:horizAlign="1"/><v:tabList/>CPOL = 0<v:newlineChar/><tspan x="-57.46" dy="1em" class="st9">CPHA </tspan>= 1</text>		</g>
		<g id="shape98-197" v:mID="98" v:groupContext="shape" transform="translate(72.375,-27.375)">
			<title>Sheet.98</title>
			<path d="M10.12 208.16 L0 208.16 L0 289.16 L11.25 289.16" class="st1"/>
		</g>
		<g id="shape99-200" v:mID="99" v:groupContext="shape" transform="translate(63.375,-73.5) scale(-1,1)">
			<title>Sheet.99</title>
			<desc>CPOL = 1 CPHA = 1</desc>
			<v:textBlock v:margins="rect(0,0,0,0)"/>
			<v:textRect cx="31.5" cy="282.409" width="63" height="13.5"/>
			<rect x="0" y="275.659" width="63" height="13.5" class="st3"/>
			<text x="-56.62" y="278.91" transform="scale(-1,1)" class="st8" v:langID="1033"><v:paragraph v:spLine="-1"
						v:horizAlign="1"/><v:tabList/>CPOL = 1<v:newlineChar/><tspan x="-57.46" dy="1em" class="st9">CPHA </tspan>= 1</text>		</g>
		<g id="shape100-204" v:mID="100" v:groupContext="shape" transform="translate(63.375,-210.75) scale(-1,1)">
			<title>Sheet.100</title>
			<desc>MODE 1</desc>
			<v:textBlock v:margins="rect(0,0,0,0)"/>
			<v:textRect cx="31.5" cy="282.409" width="63" height="13.5"/>
			<rect x="0" y="275.659" width="63" height="13.5" class="st3"/>
			<text x="-58.71" y="286.41" transform="scale(-1,1)" class="st10" v:langID="1033"><v:paragraph v:spLine="-1"
						v:horizAlign="1"/><v:tabList/>MODE 1</text>		</g>
		<g id="shape101-207" v:mID="101" v:groupContext="shape" transform="translate(63.375,-48.75) scale(-1,1)">
			<title>Sheet.101</title>
			<desc>MODE 3</desc>
			<v:textBlock v:margins="rect(0,0,0,0)"/>
			<v:textRect cx="31.5" cy="282.409" width="63" height="13.5"/>
			<rect x="0" y="275.659" width="63" height="13.5" class="st3"/>
			<text x="-58.71" y="286.41" transform="scale(-1,1)" class="st10" v:langID="1033"><v:paragraph v:spLine="-1"
						v:horizAlign="1"/><v:tabList/>MODE 3</text>		</g>
	</g>
</svg>
